<?xml version="1.0" standalone="no"?>
<!DOCTYPE svg PUBLIC "-//W3C//DTD SVG 20010904//EN"
 "http://www.w3.org/TR/2001/REC-SVG-20010904/DTD/svg10.dtd">
<svg version="1.0" xmlns="http://www.w3.org/2000/svg"
 width="512.000000pt" height="512.000000pt" viewBox="0 0 512.000000 512.000000"
 preserveAspectRatio="xMidYMid meet">

<g transform="translate(0.000000,512.000000) scale(0.100000,-0.100000)"
fill="#000000" stroke="none">
<path d="M230 5073 c-92 -32 -159 -94 -203 -191 l-22 -47 0 -1515 0 -1515 26
-56 c37 -79 90 -133 167 -171 l67 -33 636 -3 637 -3 7 -45 c3 -25 5 -48 2 -50
-2 -2 -111 -40 -243 -85 -264 -90 -294 -108 -294 -173 0 -42 39 -92 78 -101
20 -4 100 19 282 80 228 77 256 85 265 70 45 -74 92 -141 130 -182 l44 -49
-195 -195 c-209 -209 -221 -227 -190 -287 20 -39 44 -52 96 -52 41 0 46 4 246
202 196 193 206 202 227 188 62 -39 182 -91 258 -114 276 -80 545 -54 806 76
l102 51 201 -202 c195 -194 203 -201 241 -201 51 0 75 13 95 52 31 60 19 78
-190 287 l-194 194 60 70 c32 39 73 95 89 124 17 29 33 53 35 53 3 0 119 -38
257 -85 181 -62 259 -84 279 -80 39 9 78 59 78 101 0 66 -30 83 -299 175
l-243 82 6 36 c3 20 6 41 6 48 0 10 146 13 638 15 l637 3 56 26 c79 37 133 90
171 167 l33 67 0 1515 0 1515 -23 49 c-34 75 -84 129 -154 167 l-63 34 -2300
2 c-2072 2 -2304 1 -2345 -14z m3879 -214 c7 -19 11 -113 11 -234 l0 -202 29
5 c20 3 35 -2 50 -17 20 -20 21 -31 21 -224 0 -203 0 -204 -24 -227 -17 -15
-33 -21 -50 -18 l-26 5 0 -184 0 -184 28 19 c100 71 237 41 299 -66 25 -42 28
-56 28 -142 0 -83 -3 -101 -25 -140 -61 -108 -195 -142 -294 -75 l-36 24 0
-392 c0 -388 0 -393 -22 -437 -13 -24 -40 -58 -61 -74 l-39 -31 -246 -3 -247
-3 169 170 169 170 -6 48 c-7 64 -40 93 -104 93 l-47 0 -194 -192 c-107 -106
-191 -184 -187 -173 4 11 10 63 12 115 9 178 -46 324 -174 460 -108 115 -236
190 -385 225 -98 23 -132 20 -173 -16 -19 -17 -35 -26 -35 -20 0 6 -15 20 -32
32 -48 29 -133 17 -276 -40 -141 -56 -298 -198 -360 -326 -63 -129 -87 -282
-61 -394 5 -24 7 -46 4 -49 -3 -3 -92 81 -198 186 l-193 192 -47 0 c-64 0 -97
-29 -104 -93 l-6 -48 169 -169 168 -170 -679 0 c-374 0 -690 3 -703 6 l-22 6
2 1268 3 1268 25 27 c53 58 -70 54 1972 55 l1886 0 11 -31z m350 -455 c20 -25
21 -40 21 -213 0 -202 -6 -229 -52 -245 -20 -7 -33 -5 -52 8 l-26 16 0 212 c0
183 2 214 17 230 24 27 68 23 92 -8z m-1866 -1401 c75 -85 106 -153 80 -175
-22 -18 -204 -18 -226 0 -27 22 -1 80 77 174 17 20 32 37 34 37 1 1 17 -15 35
-36z m-327 -286 c51 -72 161 -117 291 -117 203 0 334 92 337 237 0 29 2 53 4
53 15 0 93 -74 128 -123 78 -105 102 -238 67 -362 -30 -106 -28 -112 75 -219
73 -77 100 -114 136 -188 26 -51 54 -122 63 -158 22 -86 22 -253 -1 -340 -91
-351 -419 -590 -806 -590 -387 0 -715 240 -806 590 -21 81 -24 254 -5 330 35
141 97 247 216 370 45 47 85 95 88 108 3 13 -3 53 -14 90 -47 166 3 332 135
448 l51 44 6 -65 c4 -51 12 -75 35 -108z"/>
<path d="M4233 3498 c-32 -15 -46 -59 -41 -129 4 -49 9 -66 27 -80 31 -26 64
-24 98 5 26 22 28 30 28 96 0 66 -2 74 -28 96 -30 26 -50 29 -84 12z"/>
<path d="M696 2678 c-11 -16 -16 -46 -16 -101 0 -69 3 -81 25 -102 29 -30 58
-32 85 -5 17 17 20 33 20 108 0 73 -3 92 -18 105 -27 25 -78 22 -96 -5z"/>
<path d="M2192 2197 c-12 -13 -22 -32 -22 -43 0 -81 276 -161 464 -135 88 12
208 51 246 79 31 24 38 67 13 94 -21 24 -46 21 -153 -18 -140 -50 -301 -43
-445 21 -70 31 -76 31 -103 2z"/>
</g>
</svg>
